<svg xmlns="http://www.w3.org/2000/svg" viewBox="0 0 225.1 225.1"><title>day-night</title><g id="Layer_2" data-name="Layer 2"><g id="Capa_1" data-name="Capa 1"><path d="M190.84,76.06,177,81.81A3.75,3.75,0,0,0,178.41,89a3.62,3.62,0,0,0,1.43-.29L193.71,83a3.76,3.76,0,0,0-2.87-6.94Z"/><path d="M116.42,30a3.75,3.75,0,0,0,0-7.5h0a3.75,3.75,0,0,0,0,7.5Z"/><path d="M105.05,78.79A11.26,11.26,0,1,0,116.3,67.53,11.27,11.27,0,0,0,105.05,78.79Zm15,0A3.76,3.76,0,1,1,116.3,75,3.77,3.77,0,0,1,120.06,78.79Z"/><path d="M165.08,112.55A52.53,52.53,0,0,1,85.9,157.82a3.75,3.75,0,1,0-3.82,6.46,60,60,0,0,0,75.44-91.39L224,6.41A3.75,3.75,0,1,0,218.7,1.1L72.86,146.93A52.55,52.55,0,0,1,67.2,86,18.68,18.68,0,0,0,95.49,62.91a52.35,52.35,0,0,1,43.57,4.29,3.75,3.75,0,1,0,3.8-6.47,59.82,59.82,0,0,0-54.15-3.21,2.49,2.49,0,0,0-.45.18,59.21,59.21,0,0,0-14,8.66A3.75,3.75,0,0,0,76.62,73,3.72,3.72,0,0,0,79,72.13a52.46,52.46,0,0,1,9.6-6.27,11.2,11.2,0,0,1-9.82,16.68,11.34,11.34,0,0,1-9-4.52,3.75,3.75,0,0,0-6.24-.16,60.05,60.05,0,0,0,4,74.37L1.1,218.7A3.75,3.75,0,0,0,6.41,224L152.22,78.19A52.14,52.14,0,0,1,165.08,112.55Z"/><path d="M82.54,105.05a7.5,7.5,0,0,1,7.07,5,3.75,3.75,0,1,0,7.08-2.48,15,15,0,1,0-19.14,19.14,3.87,3.87,0,0,0,1.25.22,3.76,3.76,0,0,0,1.25-7.3,7.5,7.5,0,0,1,2.49-14.58Z"/><path d="M18.76,135.06a3.75,3.75,0,0,0,3.75-3.75v-3.75h3.75a3.75,3.75,0,0,0,0-7.5H22.51v-3.75a3.75,3.75,0,1,0-7.5,0v3.75H11.26a3.75,3.75,0,1,0,0,7.5H15v3.75A3.75,3.75,0,0,0,18.76,135.06Z"/><path d="M3.75,45H15V56.28a3.75,3.75,0,0,0,7.5,0V45H33.77a3.75,3.75,0,0,0,0-7.5H22.51V26.26a3.75,3.75,0,1,0-7.5,0V37.52H3.75a3.75,3.75,0,0,0,0,7.5Z"/><path d="M78.79,15h3.75v3.75a3.75,3.75,0,1,0,7.5,0V15h3.75a3.76,3.76,0,0,0,0-7.51H90V3.75a3.75,3.75,0,0,0-7.5,0V7.5H78.79a3.76,3.76,0,1,0,0,7.51Z"/><path d="M33.88,67.53h0a3.76,3.76,0,1,0,3.79,3.75A3.73,3.73,0,0,0,33.84,67.53Z"/><path d="M154.77,204.69a3.75,3.75,0,0,0-6.92,2.89l6.26,15a3.76,3.76,0,0,0,3.46,2.31,3.91,3.91,0,0,0,1.45-.29,3.77,3.77,0,0,0,2-4.91Z"/><path d="M193.71,142.11l-13.87-5.75a3.75,3.75,0,0,0-2.87,6.93L190.84,149a3.62,3.62,0,0,0,1.43.29,3.75,3.75,0,0,0,1.44-7.22Z"/><path d="M166.94,160.85a3.75,3.75,0,0,0-5.31,5.31l21.22,21.22a3.75,3.75,0,1,0,5.31-5.3Z"/><path d="M219.93,64.06l-15.22,6.26a3.75,3.75,0,0,0,2.85,6.94L222.78,71a3.75,3.75,0,0,0-2.85-6.94Z"/><path d="M180.08,112.55a3.75,3.75,0,0,0,3.75,3.75h30a3.75,3.75,0,0,0,0-7.5h-30A3.75,3.75,0,0,0,180.08,112.55Z"/><path d="M222.78,154.1l-15.22-6.25a3.75,3.75,0,0,0-2.85,6.94L219.93,161a3.57,3.57,0,0,0,1.42.29,3.76,3.76,0,0,0,1.43-7.23Z"/><path d="M149,190.84,143.29,177a3.75,3.75,0,0,0-6.93,2.87l5.75,13.87a3.76,3.76,0,0,0,3.46,2.32,3.67,3.67,0,0,0,1.44-.29A3.76,3.76,0,0,0,149,190.84Z"/><path d="M150.64,128.91a3.61,3.61,0,0,0,1.16.19,3.76,3.76,0,0,0,3.57-2.6,45.32,45.32,0,0,0,1.22-23.34,3.75,3.75,0,1,0-7.34,1.56,37.75,37.75,0,0,1-1,19.47A3.75,3.75,0,0,0,150.64,128.91Z"/><path d="M75.21,202.67a3.74,3.74,0,0,0-4.89,2l-6.26,15.21A3.75,3.75,0,0,0,71,222.78l6.25-15.22A3.74,3.74,0,0,0,75.21,202.67Z"/><path d="M112.55,180.08a3.75,3.75,0,0,0-3.75,3.76v30a3.75,3.75,0,0,0,7.5,0v-30A3.75,3.75,0,0,0,112.55,180.08Z"/><path d="M86.71,174.94a3.75,3.75,0,0,0-4.9,2l-5.75,13.87a3.76,3.76,0,0,0,2,4.9,3.67,3.67,0,0,0,1.44.29A3.77,3.77,0,0,0,83,193.71l5.74-13.87A3.74,3.74,0,0,0,86.71,174.94Z"/></g></g></svg>