<?xml version="1.0" encoding="utf-8"?>
<!-- Generator: Adobe Illustrator 23.1.1, SVG Export Plug-In . SVG Version: 6.00 Build 0)  -->
<svg version="1.1" id="Capa_1" xmlns="http://www.w3.org/2000/svg" xmlns:xlink="http://www.w3.org/1999/xlink" x="0px" y="0px"
	 viewBox="0 0 317.2 229.5" style="enable-background:new 0 0 317.2 229.5;" xml:space="preserve">
<title>distance-sun</title>
<g id="Layer_2">
	<g>
		<g>
			<path d="M283,80.5l-13.9,5.8c-1.9,0.8-2.8,3-2,4.9c0.6,1.4,2,2.3,3.5,2.3c0.5,0,1-0.1,1.4-0.3l13.9-5.8c2-0.7,3-2.8,2.4-4.8
				c-0.7-2-2.8-3-4.8-2.4C283.3,80.3,283.1,80.4,283,80.5z"/>
		</g>
		<g>
			<path d="M187.6,67.3c14.5-5,30.4-3.4,43.6,4.3c1.8,1.1,4.1,0.5,5.1-1.3c1.1-1.8,0.5-4.1-1.3-5.1c-16.5-9.7-36.6-10.9-54.1-3.2
				c-0.2,0.1-0.3,0.1-0.4,0.2c-5,2.2-9.8,5.1-14,8.7c-1.6,1.3-1.8,3.7-0.4,5.3c1.3,1.5,3.6,1.8,5.2,0.5c3-2.4,6.2-4.5,9.6-6.3
				L187.6,67.3z"/>
		</g>
		<g>
			<path d="M161.9,82.4c-0.6-0.9-1.5-1.5-2.6-1.7c-1.4-0.2-2.9,0.4-3.7,1.6c-15.9,22.5-14.4,52.9,3.5,73.7c1.1,1.8,3.4,2.3,5.2,1.2
				c1.8-1.1,2.3-3.4,1.2-5.2c-0.2-0.3-0.4-0.5-0.6-0.8c-14.7-17-16.9-41.4-5.6-60.8C159.3,90.4,162.9,84.8,161.9,82.4z"/>
		</g>
		<g>
			<path d="M250.1,77.9c-0.1-0.1-0.2-0.3-0.4-0.4l0,0l0,0c-0.7-0.7-1.6-1.1-2.6-1.1c-2.1,0-3.7,1.7-3.7,3.7c0,1.1,0.5,2.2,1.4,2.9
				c18.7,22.1,16,55.2-6.1,74c-17.1,14.5-41.4,16.5-60.7,5.2c-1.8-1.1-4.1-0.5-5.1,1.3c-1.1,1.8-0.5,4.1,1.3,5.1c0,0,0,0,0,0
				c28.5,16.9,65.3,7.4,82.2-21.2c5.5-9.2,8.3-19.8,8.3-30.5C264.8,102.6,259.6,88.7,250.1,77.9z"/>
		</g>
		<g>
			<path d="M246.9,209.1c-0.7-1.9-2.8-3-4.8-2.3s-3,2.8-2.3,4.8c0,0.1,0.1,0.3,0.2,0.4l6.3,15c0.6,1.4,1.9,2.3,3.5,2.3
				c0.5,0,1-0.1,1.4-0.3c1.9-0.8,2.8-3,2-4.9L246.9,209.1z"/>
		</g>
		<g>
			<path d="M285.8,146.5l-13.8-5.8c-1.9-0.8-4.1,0.1-4.9,2s0.1,4.1,2,4.9l13.9,5.8c0.5,0.2,0.9,0.3,1.4,0.3c2.1,0,3.8-1.7,3.8-3.7
				C288.2,148.5,287.3,147.1,285.8,146.5L285.8,146.5z"/>
		</g>
		<g>
			<path d="M259.1,165.2c-1.5-1.5-3.8-1.5-5.3,0c-1.5,1.5-1.5,3.8,0,5.3l21.2,21.2c1.5,1.5,3.8,1.5,5.3,0s1.5-3.8,0-5.3l0,0
				L259.1,165.2z"/>
		</g>
		<g>
			<path d="M312,68.5l-15.2,6.3c-1.9,0.8-2.8,3-2,4.9c0.6,1.4,2,2.3,3.5,2.3c0.5,0,1-0.1,1.4-0.3l15.2-6.3c1.9-0.8,2.8-3,2-4.9
				C316.2,68.6,314,67.7,312,68.5L312,68.5z"/>
		</g>
		<g>
			<path d="M272.2,117c0,2.1,1.7,3.7,3.8,3.7h30c2.1,0,3.8-1.7,3.8-3.8s-1.7-3.8-3.8-3.8h-30C273.9,113.2,272.2,114.8,272.2,117
				C272.2,116.9,272.2,117,272.2,117z"/>
		</g>
		<g>
			<path d="M314.9,158.5l-15.2-6.2c-1.9-0.8-4.1,0.1-4.9,2c-0.8,1.9,0.1,4.1,2,4.9l0,0l15.2,6.2c0.5,0.2,0.9,0.3,1.4,0.3
				c2.1,0,3.7-1.7,3.7-3.8C317.2,160.4,316.3,159.1,314.9,158.5z"/>
		</g>
		<g>
			<path d="M241.2,195.2l-5.7-13.9c-0.8-1.9-3-2.8-4.9-2s-2.8,3-2,4.9l5.7,13.9c0.8,1.9,3,2.8,4.9,2S242,197.1,241.2,195.2
				L241.2,195.2z"/>
		</g>
		<g>
			<path d="M242.8,133.3c0.4,0.1,0.8,0.2,1.1,0.2c1.6,0,3.1-1.1,3.6-2.6c2.4-7.5,2.9-15.6,1.2-23.3c-0.5-2-2.6-3.2-4.6-2.7
				c-1.9,0.5-3.1,2.3-2.8,4.3c1.4,6.5,1,13.2-1,19.5C239.7,130.5,240.8,132.7,242.8,133.3z"/>
		</g>
		<g>
			<path d="M167.3,207.1c-1.9-0.8-4.1,0.1-4.9,2l-6.2,15.2c-0.8,1.9,0.1,4.1,2,4.9c0.5,0.2,0.9,0.3,1.4,0.3c1.5,0,2.9-0.9,3.5-2.3
				l6.3-15.1C170.2,210.1,169.3,207.9,167.3,207.1C167.4,207.1,167.4,207.1,167.3,207.1z"/>
		</g>
		<g>
			<path d="M204.7,184.5c-2.1,0-3.7,1.7-3.8,3.7c0,0,0,0,0,0v30c0,2.1,1.7,3.8,3.8,3.8s3.8-1.7,3.8-3.8l0,0v-30
				C208.4,186.2,206.8,184.5,204.7,184.5L204.7,184.5z"/>
		</g>
		<g>
			<path d="M178.8,179.3c-1.9-0.8-4.1,0.1-4.9,2l-5.8,13.9c-0.8,1.9,0.1,4.1,2,4.9c0.5,0.2,0.9,0.3,1.4,0.3c1.5,0,2.9-0.9,3.5-2.3
				l5.8-13.9C181.6,182.3,180.7,180.1,178.8,179.3z"/>
		</g>
		<g>
			<path d="M123.3,149l13.9-5.7c1.9-0.8,2.8-3,2-4.9c-0.6-1.4-1.9-2.3-3.5-2.3c-0.5,0-1,0.1-1.4,0.3l-13.9,5.8
				c-1.9,0.7-2.9,2.9-2.2,4.8s2.9,2.9,4.8,2.2C123.1,149.1,123.2,149,123.3,149L123.3,149z"/>
		</g>
		<g>
			<path d="M159.3,20.4c0.8,1.9,3,2.9,4.9,2.1s2.9-3,2.1-4.9c0,0,0-0.1,0-0.1l-6.2-15c-0.6-1.4-2-2.3-3.5-2.3c-0.5,0-1,0.1-1.4,0.3
				c-1.9,0.8-2.8,3-2,4.9L159.3,20.4z"/>
		</g>
		<g>
			<path d="M120.4,83l13.9,5.7c1.9,0.8,4.1-0.1,4.9-2c0.8-1.9-0.1-4.1-2-4.9l-13.9-5.8c-2-0.7-4.1,0.3-4.8,2.3
				C117.8,80.2,118.6,82.2,120.4,83z"/>
		</g>
		<g>
			<path d="M147.2,64.2c1.5,1.5,3.8,1.5,5.3,0c1.5-1.5,1.5-3.8,0-5.3l0,0l-21.2-21.2c-1.5-1.4-3.9-1.3-5.3,0.3c-1.3,1.4-1.3,3.6,0,5
				L147.2,64.2z"/>
		</g>
		<g>
			<path d="M94.2,161l15.2-6.3c1.9-0.8,2.8-3,2-4.9c-0.6-1.4-1.9-2.3-3.5-2.3c-0.5,0-1,0.1-1.4,0.3l-15.2,6.3
				c-1.8,1-2.5,3.2-1.6,5.1C90.6,160.8,92.5,161.5,94.2,161z"/>
		</g>
		<g>
			<path d="M150.3,169.2c-1.5-1.5-3.8-1.5-5.3,0c0,0,0,0,0,0l-21.2,21.2c-1.5,1.5-1.5,3.8,0,5.3s3.8,1.5,5.3,0l21.2-21.2
				C151.7,173.1,151.7,170.7,150.3,169.2C150.3,169.2,150.3,169.2,150.3,169.2z"/>
		</g>
		<g>
			<path d="M284.4,35.1c-1.5-1.5-3.8-1.5-5.3,0c0,0,0,0,0,0l-21.2,21.2c-1.5,1.5-1.5,3.8,0,5.3c1.5,1.5,3.8,1.5,5.3,0l21.2-21.2
				C285.9,38.9,285.9,36.6,284.4,35.1C284.4,35.1,284.4,35.1,284.4,35.1z"/>
		</g>
		<g>
			<path d="M91.3,71l15.2,6.2c1.9,0.8,4.1-0.1,4.9-2c0.8-1.9-0.1-4.1-2-4.9l-15.2-6.2c-1.9-0.8-4.1,0.1-4.9,2
				C88.5,68,89.4,70.2,91.3,71z"/>
		</g>
		<g>
			<path d="M165.1,34.3l5.8,13.9c0.8,1.9,3,2.8,4.9,2c1.9-0.8,2.8-3,2-4.9l0,0L172,31.4c-0.6-1.4-1.9-2.3-3.5-2.3
				c-0.5,0-1,0.1-1.4,0.3C165.2,30.2,164.3,32.4,165.1,34.3z"/>
		</g>
		<g>
			<path d="M238.9,22.4c1.9,0.8,4.1-0.1,4.9-2L250,5.2c0.8-1.9-0.1-4.1-2-4.9c-0.5-0.2-0.9-0.3-1.4-0.3c-1.5,0-2.9,0.9-3.5,2.3
				l-6.2,15.2C236.1,19.5,237,21.6,238.9,22.4z"/>
		</g>
		<g>
			<path d="M201.6,45c2.1,0,3.8-1.7,3.8-3.8l0,0v-30c0-2.1-1.7-3.8-3.8-3.8s-3.8,1.7-3.8,3.8v30C197.8,43.3,199.5,45,201.6,45
				L201.6,45z"/>
		</g>
		<g>
			<path d="M227.4,50.2c1.9,0.8,4.1-0.1,4.9-2l5.7-13.9c0.8-1.9-0.1-4.1-2-4.9c-0.5-0.2-0.9-0.3-1.4-0.3c-1.5,0-2.9,0.9-3.5,2.3
				l-5.7,13.9C224.6,47.2,225.5,49.4,227.4,50.2C227.4,50.2,227.4,50.2,227.4,50.2z"/>
		</g>
		<g>
			<path d="M31,150.1c-17.1,0-31-13.9-31-31c0-17.1,13.9-31,31-31s31,13.9,31,31C62,136.2,48.1,150.1,31,150.1z M31,93.1
				c-14.3,0-26,11.7-26,26c0,14.3,11.7,26,26,26s26-11.7,26-26C57,104.8,45.3,93.1,31,93.1z"/>
		</g>
		<g>
			<path d="M203,118.8c0-1.4,1.1-2.5,2.5-2.5l0,0c1.4,0,2.5,1.1,2.5,2.5l0,0c0,1.4-1.1,2.5-2.5,2.5l0,0
				C204.1,121.3,203,120.1,203,118.8z M191,118.8c0-1.4,1.1-2.5,2.5-2.5l0,0c1.4,0,2.5,1.1,2.5,2.5l0,0c0,1.4-1.1,2.5-2.5,2.5l0,0
				C192.1,121.3,191,120.1,191,118.8z M179,118.8c0-1.4,1.1-2.5,2.5-2.5l0,0c1.4,0,2.5,1.1,2.5,2.5l0,0c0,1.4-1.1,2.5-2.5,2.5l0,0
				C180.1,121.3,179,120.1,179,118.8z M167,118.8c0-1.4,1.1-2.5,2.5-2.5l0,0c1.4,0,2.5,1.1,2.5,2.5l0,0c0,1.4-1.1,2.5-2.5,2.5l0,0
				C168.1,121.3,167,120.1,167,118.8z M155,118.8c0-1.4,1.1-2.5,2.5-2.5l0,0c1.4,0,2.5,1.1,2.5,2.5l0,0c0,1.4-1.1,2.5-2.5,2.5l0,0
				C156.1,121.3,155,120.1,155,118.8z M143,118.8c0-1.4,1.1-2.5,2.5-2.5l0,0c1.4,0,2.5,1.1,2.5,2.5l0,0c0,1.4-1.1,2.5-2.5,2.5l0,0
				C144.1,121.3,143,120.1,143,118.8z M131,118.8c0-1.4,1.1-2.5,2.5-2.5l0,0c1.4,0,2.5,1.1,2.5,2.5l0,0c0,1.4-1.1,2.5-2.5,2.5l0,0
				C132.1,121.3,131,120.1,131,118.8z M119,118.8c0-1.4,1.1-2.5,2.5-2.5l0,0c1.4,0,2.5,1.1,2.5,2.5l0,0c0,1.4-1.1,2.5-2.5,2.5l0,0
				C120.1,121.3,119,120.1,119,118.8z M107,118.8c0-1.4,1.1-2.5,2.5-2.5l0,0c1.4,0,2.5,1.1,2.5,2.5l0,0c0,1.4-1.1,2.5-2.5,2.5l0,0
				C108.1,121.3,107,120.1,107,118.8z M95,118.8c0-1.4,1.1-2.5,2.5-2.5l0,0c1.4,0,2.5,1.1,2.5,2.5l0,0c0,1.4-1.1,2.5-2.5,2.5l0,0
				C96.1,121.3,95,120.1,95,118.8z M83,118.8c0-1.4,1.1-2.5,2.5-2.5l0,0c1.4,0,2.5,1.1,2.5,2.5l0,0c0,1.4-1.1,2.5-2.5,2.5l0,0
				C84.1,121.3,83,120.1,83,118.8z M71,118.8c0-1.4,1.1-2.5,2.5-2.5l0,0c1.4,0,2.5,1.1,2.5,2.5l0,0c0,1.4-1.1,2.5-2.5,2.5l0,0
				C72.1,121.3,71,120.1,71,118.8z M59,118.8c0-1.4,1.1-2.5,2.5-2.5l0,0c1.4,0,2.5,1.1,2.5,2.5l0,0c0,1.4-1.1,2.5-2.5,2.5l0,0
				C60.1,121.3,59,120.1,59,118.8z M47,118.8c0-1.4,1.1-2.5,2.5-2.5l0,0c1.4,0,2.5,1.1,2.5,2.5l0,0c0,1.4-1.1,2.5-2.5,2.5l0,0
				C48.1,121.3,47,120.1,47,118.8z M35,118.8c0-1.4,1.1-2.5,2.5-2.5l0,0c1.4,0,2.5,1.1,2.5,2.5l0,0c0,1.4-1.1,2.5-2.5,2.5l0,0
				C36.1,121.3,35,120.1,35,118.8z"/>
		</g>
	</g>
</g>
</svg>
