<svg xmlns="http://www.w3.org/2000/svg" viewBox="0 0 317.23 229.5"><defs><style>.cls-1,.cls-2{fill:none;stroke:#000;stroke-miterlimit:10;stroke-width:5px;}.cls-2{stroke-linecap:round;stroke-dasharray:0 12;}</style></defs><title>distance-sun</title><g id="Layer_2" data-name="Layer 2"><g id="Capa_1" data-name="Capa 1"><path d="M283,80.46,269.1,86.21a3.75,3.75,0,0,0,1.43,7.22,3.86,3.86,0,0,0,1.44-.29l13.86-5.75A3.75,3.75,0,1,0,283,80.46Z"/><path d="M187.61,67.31a52.38,52.38,0,0,1,43.58,4.29A3.75,3.75,0,0,0,235,65.12a59.82,59.82,0,0,0-54.15-3.21,2.92,2.92,0,0,0-.44.19,59.21,59.21,0,0,0-14,8.66,3.75,3.75,0,0,0,4.79,5.77,52,52,0,0,1,9.59-6.27Z"/><path d="M161.89,82.42a3.73,3.73,0,0,0-2.55-1.71,3.78,3.78,0,0,0-3.7,1.55A60.08,60.08,0,0,0,159.15,156a3.77,3.77,0,1,0,5.78-4.74,52.53,52.53,0,0,1-5.6-60.83S162.94,84.83,161.89,82.42Z"/><path d="M250.1,77.94a3.54,3.54,0,0,0-.35-.42l0,0h0a3.71,3.71,0,0,0-2.61-1.07,3.74,3.74,0,0,0-2.39,6.62A52.5,52.5,0,0,1,178,162.22a3.75,3.75,0,1,0-3.81,6.46A60,60,0,0,0,264.7,117,58.88,58.88,0,0,0,250.1,77.94Z"/><path d="M246.9,209.09A3.75,3.75,0,1,0,240,212l6.27,15a3.75,3.75,0,0,0,3.46,2.31,3.86,3.86,0,0,0,1.44-.29,3.75,3.75,0,0,0,2-4.91Z"/><path d="M285.83,146.51,272,140.76a3.75,3.75,0,1,0-2.88,6.93L283,153.44a3.67,3.67,0,0,0,1.44.29,3.75,3.75,0,0,0,1.43-7.22Z"/><path d="M259.06,165.25a3.75,3.75,0,1,0-5.3,5.31L275,191.78a3.75,3.75,0,0,0,5.3-5.31Z"/><path d="M312.05,68.46l-15.22,6.26a3.75,3.75,0,0,0,1.43,7.22,3.79,3.79,0,0,0,1.43-.28L314.9,75.4a3.75,3.75,0,0,0-2.85-6.94Z"/><path d="M272.21,117A3.75,3.75,0,0,0,276,120.7h30a3.75,3.75,0,1,0,0-7.5H276A3.75,3.75,0,0,0,272.21,117Z"/><path d="M314.9,158.5l-15.21-6.25a3.75,3.75,0,1,0-2.85,6.94l15.21,6.25a3.79,3.79,0,0,0,1.43.28,3.75,3.75,0,0,0,1.42-7.22Z"/><path d="M241.16,195.23l-5.74-13.87a3.75,3.75,0,1,0-6.93,2.88l5.74,13.87a3.75,3.75,0,1,0,6.93-2.88Z"/><path d="M242.77,133.31a3.55,3.55,0,0,0,1.15.19,3.75,3.75,0,0,0,3.57-2.6,45.43,45.43,0,0,0,1.23-23.34,3.76,3.76,0,0,0-7.35,1.56,37.6,37.6,0,0,1-1,19.46A3.77,3.77,0,0,0,242.77,133.31Z"/><path d="M167.34,207.06a3.77,3.77,0,0,0-4.9,2l-6.25,15.22a3.75,3.75,0,0,0,2,4.9,3.79,3.79,0,0,0,1.43.28,3.75,3.75,0,0,0,3.46-2.32L169.38,212A3.76,3.76,0,0,0,167.34,207.06Z"/><path d="M204.68,184.48a3.74,3.74,0,0,0-3.75,3.75v30a3.75,3.75,0,0,0,7.5,0v-30A3.75,3.75,0,0,0,204.68,184.48Z"/><path d="M178.84,179.34a3.75,3.75,0,0,0-4.9,2l-5.75,13.86a3.75,3.75,0,0,0,2,4.91,3.84,3.84,0,0,0,1.43.29,3.76,3.76,0,0,0,3.47-2.32l5.75-13.87A3.74,3.74,0,0,0,178.84,179.34Z"/><path d="M123.26,149l13.87-5.74a3.76,3.76,0,0,0-1.44-7.23,3.81,3.81,0,0,0-1.43.29l-13.86,5.75a3.75,3.75,0,1,0,2.86,6.93Z"/><path d="M159.33,20.41a3.75,3.75,0,1,0,6.92-2.89L160,2.54A3.76,3.76,0,0,0,156.53.23a3.91,3.91,0,0,0-1.45.29,3.77,3.77,0,0,0-2,4.92Z"/><path d="M120.39,83l13.87,5.74a3.75,3.75,0,1,0,2.87-6.93l-13.87-5.75A3.76,3.76,0,0,0,120.39,83Z"/><path d="M147.16,64.25a3.75,3.75,0,1,0,5.31-5.3L131.25,37.72A3.75,3.75,0,0,0,125.94,43Z"/><path d="M94.17,161l15.22-6.26a3.75,3.75,0,0,0-1.42-7.22,3.62,3.62,0,0,0-1.43.29L91.32,154.1A3.75,3.75,0,0,0,94.17,161Z"/><path d="M150.28,169.22a3.74,3.74,0,0,0-5.3,0l-21.23,21.22a3.75,3.75,0,0,0,5.31,5.31l21.22-21.23A3.74,3.74,0,0,0,150.28,169.22Z"/><path d="M284.41,35.09a3.75,3.75,0,0,0-5.31,0L257.88,56.31a3.75,3.75,0,1,0,5.31,5.31l21.22-21.23A3.74,3.74,0,0,0,284.41,35.09Z"/><path d="M91.32,71l15.22,6.25a3.75,3.75,0,1,0,2.85-6.94L94.17,64.06A3.75,3.75,0,0,0,91.32,71Z"/><path d="M165.06,34.27l5.75,13.87a3.75,3.75,0,1,0,6.93-2.88L172,31.39a3.74,3.74,0,0,0-3.46-2.31,3.84,3.84,0,0,0-1.44.28A3.77,3.77,0,0,0,165.06,34.27Z"/><path d="M238.89,22.44a3.77,3.77,0,0,0,4.9-2L250,5.18a3.74,3.74,0,0,0-2-4.89A3.54,3.54,0,0,0,246.57,0a3.75,3.75,0,0,0-3.47,2.33l-6.25,15.21A3.76,3.76,0,0,0,238.89,22.44Z"/><path d="M201.55,45a3.75,3.75,0,0,0,3.75-3.75v-30a3.75,3.75,0,0,0-7.5,0v30A3.75,3.75,0,0,0,201.55,45Z"/><path d="M227.39,50.16a3.75,3.75,0,0,0,4.9-2L238,34.27a3.76,3.76,0,0,0-2-4.91,3.84,3.84,0,0,0-1.44-.28,3.76,3.76,0,0,0-3.47,2.31l-5.74,13.87A3.74,3.74,0,0,0,227.39,50.16Z"/><circle class="cls-1" cx="31" cy="119.09" r="28.5"/><line class="cls-2" x1="205.5" y1="118.76" x2="30.5" y2="118.76"/></g></g></svg>