<svg xmlns="http://www.w3.org/2000/svg" viewBox="0 0 147.51 286.84"><defs><style>.cls-1{fill:none;stroke:#000;stroke-linecap:round;stroke-linejoin:round;stroke-width:8px;}</style></defs><title>gravity</title><g id="Layer_2" data-name="Layer 2"><g id="Capa_1" data-name="Capa 1"><path d="M143.45,190.46c-5.37-14.62-15.41-24.78-28.27-28.63h0c-12.39-3.71-25.86-1-37.89,7.33a40.68,40.68,0,0,0-4.83-12.59,27.63,27.63,0,0,0,23.8-34.65,4.26,4.26,0,0,0-3-3,27.65,27.65,0,0,0-34.62,23.5A40.85,40.85,0,0,0,37,136.25a4.25,4.25,0,0,0,0,8.5,32.65,32.65,0,0,1,31.09,22.83c-11.48-7.25-24.1-9.43-35.78-5.93-12.86,3.85-22.9,14-28.27,28.63-5.22,14.18-5.41,30.95-.54,47.22s14.25,30.16,26.4,39.14c12.52,9.26,26.5,12.23,39.36,8.38a37.24,37.24,0,0,0,4.28-1.57,37.06,37.06,0,0,0,4.67,1.74,39,39,0,0,0,11.22,1.65c9.5,0,19.19-3.41,28.14-10,12.15-9,21.53-22.89,26.4-39.15S148.67,204.64,143.45,190.46ZM67.09,148.08a19.15,19.15,0,0,1,21.45-21.44,19.16,19.16,0,0,1-21.45,21.44Zm68.75,87.15c-4.34,14.51-12.62,26.85-23.31,34.75-10.31,7.62-21.63,10.13-31.86,7.07A31.08,31.08,0,0,1,75.53,275a4.17,4.17,0,0,0-1.94-.47,4.26,4.26,0,0,0-1.91.45,29.91,29.91,0,0,1-4.84,1.92c-21.58,6.47-46.33-12.29-55.17-41.81s1.52-58.8,23.1-65.26c11.75-3.52,24.95.36,36.21,10.66h0a4.24,4.24,0,0,0,5.89-.12c11.18-10.07,24.25-13.85,35.87-10.37h0C134.32,176.44,144.68,205.71,135.84,235.23Z"/><line class="cls-1" x1="133.82" y1="132" x2="133.82" y2="59"/><line class="cls-1" x1="18.82" y1="95" x2="18.82" y2="23"/><line class="cls-1" x1="44.82" y1="114" x2="44.82" y2="72"/><line class="cls-1" x1="107.82" y1="102" x2="107.82" y2="19"/><line class="cls-1" x1="78.82" y1="86" x2="78.82" y2="33"/><line class="cls-1" x1="18.82" y1="139" x2="18.82" y2="114"/><line class="cls-1" x1="44.82" y1="52" x2="44.82" y2="9"/><line class="cls-1" x1="133.82" y1="40" x2="133.82" y2="13"/><line class="cls-1" x1="78.82" y1="15" x2="78.82" y2="4"/></g></g></svg>