<?xml version="1.0" encoding="utf-8"?>
<!-- Generator: Adobe Illustrator 23.1.1, SVG Export Plug-In . SVG Version: 6.00 Build 0)  -->
<svg version="1.1" id="Capa_1" xmlns="http://www.w3.org/2000/svg" xmlns:xlink="http://www.w3.org/1999/xlink" x="0px" y="0px"
	 viewBox="0 0 147.5 286.8" style="enable-background:new 0 0 147.5 286.8;" xml:space="preserve">
<title>gravity</title>
<g id="Layer_2">
	<g>
		<g>
			<path d="M143.4,190.5c-5.4-14.6-15.4-24.8-28.3-28.6l0,0c-12.4-3.7-25.9-1-37.9,7.3c-0.9-4.4-2.5-8.7-4.8-12.6
				c15.2-1.6,26.2-15.2,24.6-30.4c-0.2-1.4-0.4-2.9-0.8-4.3c-0.4-1.5-1.5-2.6-3-3c-14.8-4-29.9,4.8-33.9,19.6
				c-0.3,1.3-0.6,2.6-0.8,3.9c-6.5-4-14-6.2-21.6-6.2c-2.3,0-4.2,1.9-4.2,4.2s1.9,4.2,4.2,4.2c14.2,0,26.8,9.3,31.1,22.8
				c-11.5-7.2-24.1-9.4-35.8-5.9c-12.9,3.9-22.9,14-28.3,28.6c-5.2,14.2-5.4,30.9-0.5,47.2s14.2,30.2,26.4,39.1
				c12.5,9.3,26.5,12.2,39.4,8.4c1.5-0.4,2.9-1,4.3-1.6c1.5,0.7,3.1,1.3,4.7,1.7c3.6,1.1,7.4,1.6,11.2,1.6c9.5,0,19.2-3.4,28.1-10
				c12.1-9,21.5-22.9,26.4-39.1S148.7,204.6,143.4,190.5z M67.1,148.1c-1.4-10.5,6.1-20.1,16.5-21.4c1.6-0.2,3.3-0.2,4.9,0
				c1.3,10.5-6.1,20.1-16.6,21.4C70.4,148.3,68.7,148.3,67.1,148.1z M135.8,235.2c-4.3,14.5-12.6,26.9-23.3,34.8
				c-10.3,7.6-21.6,10.1-31.9,7.1c-1.8-0.5-3.5-1.2-5.1-2.1c-0.6-0.3-1.3-0.5-1.9-0.5c-0.7,0-1.3,0.2-1.9,0.5
				c-1.6,0.8-3.2,1.4-4.8,1.9c-21.6,6.5-46.3-12.3-55.2-41.8s1.5-58.8,23.1-65.3c11.8-3.5,25,0.4,36.2,10.7l0,0
				c1.7,1.6,4.3,1.5,5.9-0.1c11.2-10.1,24.2-13.9,35.9-10.4l0,0C134.3,176.4,144.7,205.7,135.8,235.2L135.8,235.2z"/>
		</g>
		<g>
			<path d="M133.8,136c-2.2,0-4-1.8-4-4V59c0-2.2,1.8-4,4-4s4,1.8,4,4v73C137.8,134.2,136,136,133.8,136z"/>
		</g>
		<g>
			<path d="M18.8,99c-2.2,0-4-1.8-4-4V23c0-2.2,1.8-4,4-4s4,1.8,4,4v72C22.8,97.2,21,99,18.8,99z"/>
		</g>
		<g>
			<path d="M44.8,118c-2.2,0-4-1.8-4-4V72c0-2.2,1.8-4,4-4s4,1.8,4,4v42C48.8,116.2,47,118,44.8,118z"/>
		</g>
		<g>
			<path d="M107.8,106c-2.2,0-4-1.8-4-4V19c0-2.2,1.8-4,4-4s4,1.8,4,4v83C111.8,104.2,110,106,107.8,106z"/>
		</g>
		<g>
			<path d="M78.8,90c-2.2,0-4-1.8-4-4V33c0-2.2,1.8-4,4-4s4,1.8,4,4v53C82.8,88.2,81,90,78.8,90z"/>
		</g>
		<g>
			<path d="M18.8,143c-2.2,0-4-1.8-4-4v-25c0-2.2,1.8-4,4-4s4,1.8,4,4v25C22.8,141.2,21,143,18.8,143z"/>
		</g>
		<g>
			<path d="M44.8,56c-2.2,0-4-1.8-4-4V9c0-2.2,1.8-4,4-4s4,1.8,4,4v43C48.8,54.2,47,56,44.8,56z"/>
		</g>
		<g>
			<path d="M133.8,44c-2.2,0-4-1.8-4-4V13c0-2.2,1.8-4,4-4s4,1.8,4,4v27C137.8,42.2,136,44,133.8,44z"/>
		</g>
		<g>
			<path d="M78.8,19c-2.2,0-4-1.8-4-4V4c0-2.2,1.8-4,4-4s4,1.8,4,4v11C82.8,17.2,81,19,78.8,19z"/>
		</g>
	</g>
</g>
</svg>
