<?xml version="1.0" encoding="utf-8"?>
<!-- Generator: Adobe Illustrator 23.1.1, SVG Export Plug-In . SVG Version: 6.00 Build 0)  -->
<svg version="1.1" id="Capa_1" xmlns="http://www.w3.org/2000/svg" xmlns:xlink="http://www.w3.org/1999/xlink" x="0px" y="0px"
	 viewBox="0 0 243.3 189.1" style="enable-background:new 0 0 243.3 189.1;" xml:space="preserve">
<title>mass</title>
<g id="Layer_2">
	<g>
		<g>
			<path d="M237.3,189.1H6c-2,0-3.8-1-4.9-2.6c-1.1-1.6-1.4-3.7-0.7-5.5L45,59.1c0.9-2.4,3.1-3.9,5.6-3.9h41
				c-3.5-5.8-5.5-12.6-5.5-19.3C86.1,16.8,102.8,0,121.8,0c19.3,0,35.7,16.1,35.7,35.1c0,6.9-2.2,14-5.7,20h41
				c2.5,0,4.8,1.6,5.6,3.9l44.6,122c0.7,1.8,0.4,3.9-0.7,5.5C241.1,188.2,239.3,189.1,237.3,189.1z M14.6,177.1h214.2l-40.2-110
				h-50.3c-2.7,0-5-1.8-5.8-4.3c-0.7-2.6,0.3-5.3,2.6-6.7c5.9-3.7,10.5-12.9,10.5-20.9c0-12.3-11.1-23.1-23.7-23.1
				c-12.4,0-23.6,11.4-23.6,23.9c0,7.9,4.4,16.4,10.5,20.2c2.3,1.4,3.3,4.2,2.6,6.7s-3.1,4.3-5.8,4.3H54.8L14.6,177.1z"/>
		</g>
		<g>
			<path d="M122.1,48c-3.4,0-6.6-1.3-9-3.7c-2.4-2.4-3.7-5.6-3.8-9s1.3-6.6,3.7-9s5.6-3.7,9-3.8c7.1,0,12.8,5.7,12.8,12.8
				c0,3.4-1.3,6.6-3.7,9C128.7,46.7,125.5,48,122.1,48C122.1,48,122.1,48,122.1,48z M122.1,30.5c-1.3,0-2.5,0.5-3.4,1.4
				c-0.9,0.9-1.4,2.1-1.4,3.4s0.5,2.5,1.4,3.4c0.9,0.9,2.1,1.4,3.4,1.4c0,0,0,0,0,0c1.3,0,2.5-0.5,3.4-1.4c0.9-0.9,1.4-2.1,1.4-3.4
				c0,0,0,0,0,0C126.9,32.6,124.8,30.5,122.1,30.5z"/>
		</g>
		<g>
			<path d="M186.1,154.1H131c-3.3,0-6-2.7-6-6s2.7-6,6-6h47l-14.1-47.2c-1-3.2,0.9-6.5,4-7.5c3.2-1,6.5,0.9,7.5,4l16.4,54.9
				c0.5,1.8,0.2,3.8-0.9,5.3C189.8,153.2,188,154.1,186.1,154.1z"/>
		</g>
	</g>
</g>
</svg>
