<svg xmlns="http://www.w3.org/2000/svg" viewBox="0 0 154.69 155.33"><defs><style>.cls-1{fill:none;stroke:#000;stroke-linecap:round;stroke-linejoin:round;stroke-width:8px;}</style></defs><title>moon</title><g id="Layer_2" data-name="Layer 2"><g id="Capa_1" data-name="Capa 1"><path class="cls-1" d="M113.16,142.24A73.68,73.68,0,0,1,20.67,31"/><path class="cls-1" d="M150.69,87.43a73.53,73.53,0,0,1-23.72,45"/><path class="cls-1" d="M39.66,14.55a73.69,73.69,0,0,1,110.78,51.6"/><path class="cls-1" d="M95.33,32.33A8.33,8.33,0,1,1,87,24,8.33,8.33,0,0,1,95.33,32.33Z"/><path class="cls-1" d="M67.33,82.33A8.33,8.33,0,1,1,59,74,8.33,8.33,0,0,1,67.33,82.33Z"/><path class="cls-1" d="M82.33,120.33A15.33,15.33,0,1,1,67,105,15.33,15.33,0,0,1,82.33,120.33Z"/><path class="cls-1" d="M100.83,76a17.53,17.53,0,1,1,20,8.72"/><path class="cls-1" d="M51.05,26.64A14.94,14.94,0,1,1,35.49,36.83"/><path class="cls-1" d="M111.19,110.33a2.19,2.19,0,1,1-2.19-2.19A2.19,2.19,0,0,1,111.19,110.33Z"/><path class="cls-1" d="M31.19,69.33A2.19,2.19,0,1,1,29,67.14,2.19,2.19,0,0,1,31.19,69.33Z"/></g></g></svg>