<?xml version="1.0" encoding="utf-8"?>
<!-- Generator: Adobe Illustrator 23.1.1, SVG Export Plug-In . SVG Version: 6.00 Build 0)  -->
<svg version="1.1" id="Capa_1" xmlns="http://www.w3.org/2000/svg" xmlns:xlink="http://www.w3.org/1999/xlink" x="0px" y="0px"
	 viewBox="0 0 154.7 155.3" style="enable-background:new 0 0 154.7 155.3;" xml:space="preserve">
<title>moon</title>
<g id="Layer_2">
	<g>
		<g>
			<path d="M77.8,155.3c-27.5,0-54.1-14.6-68.2-40.3c-15.3-27.9-12.2-61.9,8-86.6c1.4-1.7,3.9-2,5.6-0.6c1.7,1.4,2,3.9,0.6,5.6
				C5.7,55.7,2.9,86.1,16.6,111.2c18.5,33.7,60.9,46,94.6,27.5c1.9-1.1,4.4-0.4,5.4,1.6c1.1,1.9,0.4,4.4-1.6,5.4
				C103.3,152.2,90.5,155.3,77.8,155.3z"/>
		</g>
		<g>
			<path d="M127,136.4c-1.1,0-2.2-0.4-3-1.3c-1.5-1.6-1.3-4.2,0.3-5.6c12.3-11.1,20.3-26.2,22.4-42.6c0.3-2.2,2.3-3.7,4.5-3.4
				c2.2,0.3,3.7,2.3,3.4,4.5c-2.4,18.3-11.3,35.1-25,47.4C128.9,136.1,127.9,136.4,127,136.4z"/>
		</g>
		<g>
			<path d="M150.4,70.2c-1.9,0-3.6-1.4-3.9-3.4c-1.4-8.9-4.5-17.3-9.1-25C117.6,8.8,74.6-1.8,41.7,18c-1.9,1.1-4.4,0.5-5.5-1.4
				c-1.1-1.9-0.5-4.4,1.4-5.5C74.3-11,122.1,0.9,144.2,37.6c5.2,8.6,8.6,18,10.2,27.9c0.3,2.2-1.1,4.2-3.3,4.6
				C150.9,70.1,150.6,70.2,150.4,70.2z"/>
		</g>
		<g>
			<path d="M87,44.7c-6.8,0-12.3-5.5-12.3-12.3S80.2,20,87,20s12.3,5.5,12.3,12.3S93.8,44.7,87,44.7z M87,28c-2.4,0-4.3,1.9-4.3,4.3
				s1.9,4.3,4.3,4.3s4.3-1.9,4.3-4.3S89.4,28,87,28z"/>
		</g>
		<g>
			<path d="M59,94.7c-6.8,0-12.3-5.5-12.3-12.3S52.2,70,59,70s12.3,5.5,12.3,12.3S65.8,94.7,59,94.7z M59,78c-2.4,0-4.3,1.9-4.3,4.3
				s1.9,4.3,4.3,4.3s4.3-1.9,4.3-4.3S61.4,78,59,78z"/>
		</g>
		<g>
			<path d="M67,139.7c-10.7,0-19.3-8.7-19.3-19.3S56.3,101,67,101s19.3,8.7,19.3,19.3S77.7,139.7,67,139.7z M67,109
				c-6.2,0-11.3,5.1-11.3,11.3s5.1,11.3,11.3,11.3s11.3-5.1,11.3-11.3S73.2,109,67,109z"/>
		</g>
		<g>
			<path d="M120.8,88.7c-1.8,0-3.4-1.2-3.9-3c-0.6-2.1,0.7-4.3,2.8-4.9c1-0.3,2-0.6,2.9-1.1c6.6-3.5,9.1-11.7,5.6-18.3
				c-3.5-6.6-11.7-9.1-18.3-5.6c-3.2,1.7-5.5,4.5-6.6,8c-1.1,3.5-0.7,7.1,1,10.3c1,2,0.3,4.4-1.7,5.4c-2,1-4.4,0.3-5.4-1.7
				C94.6,72.8,94,67,95.7,61.5c1.7-5.5,5.4-10,10.5-12.7c10.5-5.6,23.5-1.6,29.1,8.9c5.6,10.5,1.6,23.5-8.9,29.1
				c-1.4,0.8-3,1.4-4.5,1.8C121.5,88.7,121.2,88.7,120.8,88.7z"/>
		</g>
		<g>
			<path d="M49.7,60.5c-0.6,0-1.2,0-1.8-0.1c-10.4-1-18.1-10.2-17.1-20.6c0.1-1.4,0.4-2.8,0.9-4.2c0.7-2.1,3-3.2,5.1-2.5
				c2.1,0.7,3.2,3,2.5,5.1c-0.3,0.8-0.4,1.6-0.5,2.4c-0.3,2.9,0.6,5.8,2.5,8c1.9,2.2,4.5,3.6,7.4,3.9c6,0.5,11.3-3.9,11.9-9.9
				c0.3-2.9-0.6-5.7-2.5-8s-4.5-3.6-7.4-3.9c-2.2-0.2-3.8-2.2-3.6-4.4c0.2-2.2,2.2-3.8,4.4-3.6c5,0.5,9.6,2.9,12.8,6.8
				c3.2,3.9,4.8,8.8,4.3,13.8C67.6,53.1,59.4,60.5,49.7,60.5z"/>
		</g>
		<g>
			<path d="M109,116.5c-3.4,0-6.2-2.8-6.2-6.2s2.8-6.2,6.2-6.2s6.2,2.8,6.2,6.2S112.4,116.5,109,116.5z M109,108.5
				c-1,0-1.8,0.8-1.8,1.8s0.8,1.8,1.8,1.8s1.8-0.8,1.8-1.8S110,108.5,109,108.5z"/>
		</g>
		<g>
			<path d="M29,75.5c-3.4,0-6.2-2.8-6.2-6.2s2.8-6.2,6.2-6.2s6.2,2.8,6.2,6.2S32.4,75.5,29,75.5z M29,67.5c-1,0-1.8,0.8-1.8,1.8
				s0.8,1.8,1.8,1.8s1.8-0.8,1.8-1.8S30,67.5,29,67.5z"/>
		</g>
	</g>
</g>
</svg>
