<svg xmlns="http://www.w3.org/2000/svg" viewBox="0 0 122.61 214.76"><title>temperature</title><g id="Layer_2" data-name="Layer 2"><g id="Capa_1" data-name="Capa 1"><path d="M122.61,27.32v9.16H87.14V27.32Zm-14.88,20H87.14v9.15h20.59ZM87.14,76.37h35.47V67.22H87.14Zm20.59,10.8H87.14v9.16h20.59Zm-20.59,29.1h35.47v-9.15H87.14Zm5.53,52.15A46.34,46.34,0,1,1,22.88,128.5v-105a23.46,23.46,0,0,1,46.91,0V128.5A46.09,46.09,0,0,1,92.67,168.42Zm-9.15,0a37,37,0,0,0-20.38-33.13L60.63,134V23.46a14.3,14.3,0,0,0-28.6,0V134l-2.5,1.27a37.17,37.17,0,1,0,54,33.13Zm-7.63,0A29.56,29.56,0,1,1,38.73,139.9l1.7-.45V83H52.25v56.44l1.69.46A29.56,29.56,0,0,1,75.89,168.42Z"/></g></g></svg>